<svg id="Capa_1" enable-background="new 0 0 512 512" height="512" viewBox="0 0 512 512" width="512" xmlns="http://www.w3.org/2000/svg"><g><g><path fill="#fff" d="m423.434 355.943-33.663-151.96c-.831-3.752-5.636-8.166-9.388-7.335l-12.669 2.807c-.091-2.097-.565-4.384-.909-5.938l-36.292-163.834c-.752-3.395-4.113-5.536-7.508-4.785l-150.455 33.329c-3.395.751-5.537 4.113-4.785 7.507l36.293 163.834c.345 1.555 1.982 3.584 3.977 5.259l-25.506 5.649c-3.751.831-5.027 6.594-4.196 10.345l33.663 151.96c.831 3.752 4.545 6.118 8.297 5.288l197.855-43.83c3.75-.83 6.117-4.544 5.286-8.296z" fill="#e9c278"/><path d="m270.07 219.488h45.466v94.828h-45.466z" fill="#fff" transform="matrix(.976 -.216 .216 .976 -50.795 69.644)"/><path d="m241.19 40.368h34.996v100.89h-34.996z" fill="#fff" transform="matrix(.976 -.216 .216 .976 -13.518 58.098)"/><ellipse cx="254.065" cy="448.784" fill="#eaa895" rx="59.171" ry="59.171" transform="matrix(.041 -.999 .999 .041 -204.84 684.075)"/><ellipse cx="254.065" cy="448.784" fill="#f9fbfc" rx="25.757" ry="25.757" transform="matrix(.962 -.275 .275 .962 -113.553 87.103)"/></g><g fill="#f9fbfc"><g><path d="m348.354 122.516c-1.698 0-3.074 1.376-3.074 3.074s1.376 3.075 3.074 3.075 3.074-1.376 3.074-3.075c0-1.698-1.376-3.074-3.074-3.074z"/><path d="m348.354 142.334c-1.698 0-3.074 1.376-3.074 3.074s1.376 3.075 3.074 3.075 3.074-1.377 3.074-3.075-1.376-3.074-3.074-3.074z"/><ellipse cx="348.354" cy="165.227" rx="3.074" ry="3.074" transform="matrix(.004 -1 1 .004 181.791 512.944)"/><path d="m358.636 171.689c-1.698 0-3.074 1.376-3.074 3.075 0 1.697 1.376 3.074 3.074 3.074s3.074-1.376 3.074-3.074c.001-1.699-1.376-3.075-3.074-3.075z"/><path d="m348.354 181.971c-1.698 0-3.074 1.377-3.074 3.075 0 1.697 1.376 3.074 3.074 3.074s3.074-1.376 3.074-3.074-1.376-3.075-3.074-3.075z"/><path d="m361.711 194.581c0-1.698-1.376-3.074-3.074-3.074s-3.074 1.376-3.074 3.074c0 1.699 1.376 3.075 3.074 3.075 1.697 0 3.074-1.376 3.074-3.075z"/><path d="m328.536 49.39c1.698 0 3.074-1.377 3.074-3.075 0-1.697-1.376-3.074-3.074-3.074s-3.074 1.376-3.074 3.074c-.001 1.698 1.376 3.075 3.074 3.075z"/><path d="m328.536 69.208c1.698 0 3.074-1.376 3.074-3.074 0-1.697-1.376-3.074-3.074-3.074s-3.074 1.376-3.074 3.074c-.001 1.698 1.376 3.074 3.074 3.074z"/><path d="m338.818 72.596c-1.698 0-3.074 1.376-3.074 3.074s1.376 3.075 3.074 3.075c.933 0 1.759-.425 2.323-1.082l-1.061-4.79c-.386-.174-.811-.277-1.262-.277z"/><path d="m328.536 89.027c1.698 0 3.074-1.376 3.074-3.074 0-1.699-1.376-3.075-3.074-3.075s-3.074 1.376-3.074 3.075c-.001 1.697 1.376 3.074 3.074 3.074z"/><path d="m338.818 92.415c-1.698 0-3.074 1.376-3.074 3.074s1.376 3.075 3.074 3.075 3.074-1.376 3.074-3.075c0-1.698-1.376-3.074-3.074-3.074z"/><path d="m328.536 108.845c1.698 0 3.074-1.376 3.074-3.074 0-1.699-1.376-3.075-3.074-3.075s-3.074 1.376-3.074 3.075c-.001 1.698 1.376 3.074 3.074 3.074z"/><path d="m338.818 112.234c-1.698 0-3.074 1.376-3.074 3.074 0 1.697 1.376 3.075 3.074 3.075s3.074-1.377 3.074-3.075-1.376-3.074-3.074-3.074z"/><path d="m328.536 128.664c1.698 0 3.074-1.376 3.074-3.075 0-1.697-1.376-3.074-3.074-3.074s-3.074 1.376-3.074 3.074c-.001 1.699 1.376 3.075 3.074 3.075z"/><path d="m338.818 132.052c-1.698 0-3.074 1.376-3.074 3.074 0 1.697 1.376 3.074 3.074 3.074s3.074-1.376 3.074-3.074-1.376-3.074-3.074-3.074z"/><path d="m338.818 151.87c-1.698 0-3.074 1.376-3.074 3.075 0 1.697 1.376 3.074 3.074 3.074s3.074-1.376 3.074-3.074c0-1.699-1.376-3.075-3.074-3.075z"/><path d="m338.818 171.689c-1.698 0-3.074 1.376-3.074 3.075 0 1.697 1.376 3.074 3.074 3.074s3.074-1.376 3.074-3.074c0-1.699-1.376-3.075-3.074-3.075z"/><path d="m328.536 181.971c-1.698 0-3.074 1.377-3.074 3.075 0 1.697 1.376 3.074 3.074 3.074s3.074-1.376 3.074-3.074-1.377-3.075-3.074-3.075z"/><path d="m338.818 191.507c-1.698 0-3.074 1.376-3.074 3.074 0 1.699 1.376 3.075 3.074 3.075s3.074-1.376 3.074-3.075c0-1.697-1.376-3.074-3.074-3.074z"/><path d="m328.536 201.79c-1.698 0-3.074 1.376-3.074 3.075 0 1.697 1.376 3.074 3.074 3.074s3.074-1.376 3.074-3.074c0-1.699-1.377-3.075-3.074-3.075z"/><path d="m318.999 32.96c-1.698 0-3.074 1.376-3.074 3.074s1.376 3.074 3.074 3.074 3.074-1.376 3.074-3.074c.001-1.698-1.376-3.074-3.074-3.074z"/><path d="m318.999 58.926c1.698 0 3.074-1.376 3.074-3.074s-1.376-3.075-3.074-3.075-3.074 1.376-3.074 3.075c0 1.698 1.377 3.074 3.074 3.074z"/><path d="m318.999 78.745c1.698 0 3.074-1.376 3.074-3.075 0-1.697-1.376-3.074-3.074-3.074s-3.074 1.376-3.074 3.074 1.377 3.075 3.074 3.075z"/><path d="m308.717 181.971c-1.698 0-3.074 1.377-3.074 3.075 0 1.697 1.376 3.074 3.074 3.074s3.074-1.376 3.074-3.074-1.376-3.075-3.074-3.075z"/><path d="m318.999 191.507c-1.698 0-3.074 1.376-3.074 3.074 0 1.699 1.376 3.075 3.074 3.075s3.074-1.376 3.074-3.075c.001-1.697-1.376-3.074-3.074-3.074z"/><path d="m308.717 201.79c-1.698 0-3.074 1.376-3.074 3.075 0 1.697 1.376 3.074 3.074 3.074s3.074-1.376 3.074-3.074c0-1.699-1.376-3.075-3.074-3.075z"/><path d="m288.898 181.971c-1.698 0-3.074 1.377-3.074 3.075 0 1.697 1.376 3.074 3.074 3.074s3.074-1.376 3.074-3.074c.001-1.698-1.376-3.075-3.074-3.075z"/><path d="m296.107 194.581c0 1.699 1.376 3.075 3.074 3.075s3.074-1.376 3.074-3.075c0-1.698-1.376-3.074-3.074-3.074s-3.074 1.377-3.074 3.074z"/><path d="m288.898 201.79c-1.698 0-3.074 1.376-3.074 3.075 0 1.697 1.376 3.074 3.074 3.074s3.074-1.376 3.074-3.074c.001-1.699-1.376-3.075-3.074-3.075z"/><path d="m279.362 191.507c-1.698 0-3.074 1.376-3.074 3.074 0 1.699 1.376 3.075 3.074 3.075s3.074-1.376 3.074-3.075c0-1.697-1.376-3.074-3.074-3.074z"/><path d="m269.08 201.79c-1.698 0-3.074 1.376-3.074 3.075 0 1.697 1.376 3.074 3.074 3.074s3.074-1.376 3.074-3.074c0-1.699-1.376-3.075-3.074-3.075z"/><path d="m279.362 211.326c-1.698 0-3.074 1.376-3.074 3.074 0 1.699 1.376 3.075 3.074 3.075s3.074-1.376 3.074-3.075c0-1.698-1.376-3.074-3.074-3.074z"/><path d="m259.544 191.507c-1.698 0-3.074 1.376-3.074 3.074 0 1.699 1.376 3.075 3.074 3.075s3.074-1.376 3.074-3.075c0-1.697-1.376-3.074-3.074-3.074z"/><path d="m246.187 204.864c0 1.697 1.376 3.074 3.074 3.074s3.074-1.376 3.074-3.074-1.376-3.075-3.074-3.075-3.074 1.377-3.074 3.075z"/><path d="m259.544 211.326c-1.698 0-3.074 1.376-3.074 3.074 0 1.699 1.376 3.075 3.074 3.075s3.074-1.376 3.074-3.075c0-1.698-1.376-3.074-3.074-3.074z"/><path d="m236.651 194.581c0 1.699 1.376 3.075 3.074 3.075s3.074-1.376 3.074-3.075c0-1.698-1.376-3.074-3.074-3.074-.122 0-.239.022-.357.036l-.618.136c-1.217.411-2.099 1.548-2.099 2.902z"/><path d="m229.443 201.79c-1.698 0-3.074 1.376-3.074 3.075 0 1.697 1.376 3.074 3.074 3.074s3.074-1.376 3.074-3.074c0-1.699-1.376-3.075-3.074-3.075z"/><path d="m239.725 211.326c-1.698 0-3.074 1.376-3.074 3.074 0 1.699 1.376 3.075 3.074 3.075s3.074-1.376 3.074-3.075c0-1.698-1.376-3.074-3.074-3.074z"/><path d="m229.443 221.608c-1.698 0-3.074 1.376-3.074 3.074s1.376 3.075 3.074 3.075 3.074-1.376 3.074-3.075c0-1.697-1.376-3.074-3.074-3.074z"/><path d="m206.55 204.864c0 1.697 1.376 3.074 3.074 3.074s3.074-1.376 3.074-3.074-1.376-3.075-3.074-3.075-3.074 1.377-3.074 3.075z"/><path d="m219.907 211.326c-1.698 0-3.074 1.376-3.074 3.074 0 1.699 1.377 3.075 3.074 3.075 1.698 0 3.074-1.376 3.074-3.075 0-1.698-1.377-3.074-3.074-3.074z"/><path d="m209.624 227.757c1.698 0 3.074-1.376 3.074-3.075 0-1.697-1.376-3.074-3.074-3.074s-3.074 1.376-3.074 3.074 1.377 3.075 3.074 3.075z"/><path d="m308.732 49.414c1.698 0 3.074-1.376 3.074-3.074 0-1.699-1.376-3.075-3.074-3.075s-3.074 1.376-3.074 3.075c0 1.698 1.376 3.074 3.074 3.074z"/><path d="m319.012 98.535c1.698 0 3.074-1.376 3.074-3.074 0-1.699-1.376-3.075-3.074-3.075s-3.074 1.376-3.074 3.075c0 1.698 1.376 3.074 3.074 3.074z"/><path d="m319.012 177.799c1.698 0 3.074-1.376 3.074-3.074 0-1.699-1.376-3.075-3.074-3.075s-3.074 1.376-3.074 3.075c0 1.698 1.376 3.074 3.074 3.074z"/><path d="m269.054 188.126c1.698 0 3.074-1.376 3.074-3.074s-1.376-3.075-3.074-3.075-3.074 1.376-3.074 3.075c-.001 1.698 1.376 3.074 3.074 3.074z"/></g><g><path d="m407.81 300.882c-1.698 0-3.074 1.376-3.074 3.075 0 1.697 1.376 3.074 3.074 3.074s3.074-1.376 3.074-3.074c0-1.699-1.377-3.075-3.074-3.075z"/><path d="m407.81 320.701c-1.698 0-3.074 1.376-3.074 3.074 0 1.699 1.376 3.075 3.074 3.075s3.074-1.376 3.074-3.075c0-1.698-1.377-3.074-3.074-3.074z"/><path d="m407.81 340.52c-1.698 0-3.074 1.376-3.074 3.074s1.376 3.075 3.074 3.075 3.074-1.376 3.074-3.075c0-1.698-1.377-3.074-3.074-3.074z"/><path d="m418.092 350.055c-1.698 0-3.074 1.377-3.074 3.075s1.376 3.074 3.074 3.074 3.074-1.376 3.074-3.074-1.376-3.075-3.074-3.075z"/><path d="m410.884 363.412c0-1.697-1.376-3.074-3.074-3.074s-3.074 1.376-3.074 3.074c0 1.697 1.376 3.074 3.074 3.074.124 0 .241-.022.361-.036l.61-.134c1.218-.41 2.103-1.547 2.103-2.904z"/><path d="m387.991 221.608c-1.698 0-3.074 1.376-3.074 3.074s1.376 3.075 3.074 3.075 3.074-1.376 3.074-3.075c0-1.697-1.376-3.074-3.074-3.074z"/><path d="m387.991 241.427c-1.698 0-3.074 1.376-3.074 3.074 0 1.697 1.376 3.075 3.074 3.075s3.074-1.377 3.074-3.075-1.376-3.074-3.074-3.074z"/><path d="m398.274 250.963c-1.698 0-3.074 1.377-3.074 3.075 0 1.697 1.376 3.074 3.074 3.074 1.286 0 2.385-.791 2.843-1.912l-.754-3.406c-.55-.512-1.28-.831-2.089-.831z"/><path d="m387.991 261.246c-1.698 0-3.074 1.376-3.074 3.074s1.376 3.074 3.074 3.074 3.074-1.376 3.074-3.074-1.376-3.074-3.074-3.074z"/><path d="m398.274 270.781c-1.698 0-3.074 1.376-3.074 3.075 0 1.697 1.376 3.074 3.074 3.074s3.074-1.376 3.074-3.074-1.377-3.075-3.074-3.075z"/><path d="m387.991 281.063c-1.698 0-3.074 1.377-3.074 3.075 0 1.697 1.376 3.074 3.074 3.074s3.074-1.376 3.074-3.074c0-1.697-1.376-3.075-3.074-3.075z"/><path d="m398.274 290.6c-1.698 0-3.074 1.376-3.074 3.074 0 1.699 1.376 3.075 3.074 3.075s3.074-1.376 3.074-3.075c0-1.698-1.377-3.074-3.074-3.074z"/><path d="m387.991 300.882c-1.698 0-3.074 1.376-3.074 3.075 0 1.697 1.376 3.074 3.074 3.074s3.074-1.376 3.074-3.074c0-1.699-1.376-3.075-3.074-3.075z"/><path d="m398.274 310.419c-1.698 0-3.074 1.376-3.074 3.074 0 1.699 1.376 3.075 3.074 3.075s3.074-1.376 3.074-3.075c0-1.698-1.377-3.074-3.074-3.074z"/><path d="m387.991 320.701c-1.698 0-3.074 1.376-3.074 3.074 0 1.699 1.376 3.075 3.074 3.075s3.074-1.376 3.074-3.075c0-1.698-1.376-3.074-3.074-3.074z"/><path d="m398.274 330.237c-1.698 0-3.074 1.376-3.074 3.074 0 1.697 1.376 3.074 3.074 3.074s3.074-1.376 3.074-3.074c0-1.697-1.377-3.074-3.074-3.074z"/><path d="m387.991 340.52c-1.698 0-3.074 1.376-3.074 3.074s1.376 3.075 3.074 3.075 3.074-1.376 3.074-3.075c0-1.698-1.376-3.074-3.074-3.074z"/><path d="m398.274 350.055c-1.698 0-3.074 1.377-3.074 3.075s1.376 3.074 3.074 3.074 3.074-1.376 3.074-3.074-1.377-3.075-3.074-3.075z"/><path d="m387.991 360.338c-1.698 0-3.074 1.376-3.074 3.074 0 1.697 1.376 3.074 3.074 3.074s3.074-1.376 3.074-3.074c0-1.697-1.376-3.074-3.074-3.074z"/><path d="m368.173 207.938c1.698 0 3.074-1.376 3.074-3.074s-1.376-3.075-3.074-3.075-3.074 1.376-3.074 3.075c0 1.698 1.376 3.074 3.074 3.074z"/><path d="m378.455 211.326c-1.698 0-3.074 1.376-3.074 3.074 0 1.699 1.376 3.075 3.074 3.075s3.074-1.376 3.074-3.075c0-1.698-1.376-3.074-3.074-3.074z"/><path d="m368.173 227.757c1.698 0 3.074-1.376 3.074-3.075 0-1.697-1.376-3.074-3.074-3.074s-3.074 1.376-3.074 3.074 1.376 3.075 3.074 3.075z"/><path d="m378.455 237.292c1.698 0 3.074-1.376 3.074-3.074 0-1.697-1.376-3.074-3.074-3.074s-3.074 1.376-3.074 3.074 1.376 3.074 3.074 3.074z"/><path d="m368.173 247.575c1.698 0 3.074-1.377 3.074-3.075s-1.376-3.074-3.074-3.074-3.074 1.376-3.074 3.074 1.376 3.075 3.074 3.075z"/><path d="m378.455 257.111c1.698 0 3.074-1.376 3.074-3.074 0-1.697-1.376-3.075-3.074-3.075s-3.074 1.377-3.074 3.075 1.376 3.074 3.074 3.074z"/><path d="m378.455 276.93c1.698 0 3.074-1.376 3.074-3.074 0-1.699-1.376-3.075-3.074-3.075s-3.074 1.376-3.074 3.075c0 1.698 1.376 3.074 3.074 3.074z"/><path d="m378.455 296.748c1.698 0 3.074-1.376 3.074-3.075 0-1.698-1.376-3.074-3.074-3.074s-3.074 1.376-3.074 3.074c0 1.699 1.376 3.075 3.074 3.075z"/><path d="m378.455 356.204c1.698 0 3.074-1.376 3.074-3.074s-1.376-3.075-3.074-3.075-3.074 1.377-3.074 3.075 1.376 3.074 3.074 3.074z"/><path d="m368.173 360.338c-1.698 0-3.074 1.376-3.074 3.074 0 1.697 1.376 3.074 3.074 3.074s3.074-1.376 3.074-3.074c0-1.697-1.377-3.074-3.074-3.074z"/><path d="m358.636 350.055c-1.698 0-3.074 1.377-3.074 3.075s1.376 3.074 3.074 3.074 3.074-1.376 3.074-3.074-1.376-3.075-3.074-3.075z"/><path d="m348.354 360.338c-1.698 0-3.074 1.376-3.074 3.074 0 1.697 1.376 3.074 3.074 3.074s3.074-1.376 3.074-3.074c0-1.697-1.376-3.074-3.074-3.074z"/><path d="m358.636 369.874c-1.698 0-3.074 1.376-3.074 3.075 0 1.698 1.376 3.074 3.074 3.074s3.074-1.376 3.074-3.074c.001-1.699-1.376-3.075-3.074-3.075z"/><path d="m338.818 350.055c-1.698 0-3.074 1.377-3.074 3.075s1.376 3.074 3.074 3.074 3.074-1.376 3.074-3.074-1.376-3.075-3.074-3.075z"/><path d="m325.461 363.412c0 1.697 1.376 3.074 3.074 3.074s3.074-1.376 3.074-3.074c0-1.697-1.376-3.074-3.074-3.074-1.697 0-3.074 1.377-3.074 3.074z"/><path d="m338.818 369.874c-1.698 0-3.074 1.376-3.074 3.075 0 1.698 1.376 3.074 3.074 3.074s3.074-1.376 3.074-3.074c0-1.699-1.376-3.075-3.074-3.075z"/><path d="m308.717 360.338c-1.698 0-3.074 1.376-3.074 3.074 0 1.697 1.376 3.074 3.074 3.074s3.074-1.376 3.074-3.074c0-1.697-1.376-3.074-3.074-3.074z"/><path d="m318.999 369.874c-1.698 0-3.074 1.376-3.074 3.075 0 1.698 1.376 3.074 3.074 3.074s3.074-1.376 3.074-3.074c.001-1.699-1.376-3.075-3.074-3.075z"/><path d="m308.717 380.156c-1.698 0-3.074 1.377-3.074 3.075s1.376 3.074 3.074 3.074 3.074-1.376 3.074-3.074-1.376-3.075-3.074-3.075z"/><path d="m288.898 360.338c-1.698 0-3.074 1.376-3.074 3.074 0 1.697 1.376 3.074 3.074 3.074s3.074-1.376 3.074-3.074c.001-1.697-1.376-3.074-3.074-3.074z"/><path d="m296.107 372.949c0 1.698 1.376 3.074 3.074 3.074s3.074-1.376 3.074-3.074-1.376-3.075-3.074-3.075-3.074 1.376-3.074 3.075z"/><path d="m288.898 380.156c-1.698 0-3.074 1.377-3.074 3.075s1.376 3.074 3.074 3.074 3.074-1.376 3.074-3.074c.001-1.698-1.376-3.075-3.074-3.075z"/><path d="m276.288 372.949c0 1.698 1.376 3.074 3.074 3.074s3.074-1.376 3.074-3.074-1.376-3.075-3.074-3.075c-1.697 0-3.074 1.376-3.074 3.075z"/><path d="m269.08 380.156c-1.698 0-3.074 1.377-3.074 3.075s1.376 3.074 3.074 3.074 3.074-1.376 3.074-3.074-1.376-3.075-3.074-3.075z"/><path d="m259.544 369.874c-1.698 0-3.074 1.376-3.074 3.075 0 1.698 1.376 3.074 3.074 3.074s3.074-1.376 3.074-3.074c0-1.699-1.376-3.075-3.074-3.075z"/><path d="m246.187 383.231c0 1.698 1.376 3.074 3.074 3.074s3.074-1.376 3.074-3.074c0-1.697-1.376-3.075-3.074-3.075s-3.074 1.377-3.074 3.075z"/><path d="m239.725 369.874c-1.698 0-3.074 1.376-3.074 3.075 0 1.698 1.376 3.074 3.074 3.074s3.074-1.376 3.074-3.074c0-1.699-1.376-3.075-3.074-3.075z"/><path d="m226.369 383.231c0 1.698 1.376 3.074 3.074 3.074s3.074-1.376 3.074-3.074c0-1.697-1.376-3.075-3.074-3.075s-3.074 1.377-3.074 3.075z"/><path d="m219.907 395.841c1.698 0 3.074-1.376 3.074-3.075 0-1.697-1.377-3.074-3.074-3.074-1.698 0-3.074 1.376-3.074 3.074 0 1.699 1.376 3.075 3.074 3.075z"/><path d="m358.634 217.488c1.698 0 3.074-1.376 3.074-3.075 0-1.698-1.376-3.074-3.074-3.074s-3.074 1.376-3.074 3.074c0 1.699 1.376 3.075 3.074 3.075z"/><path d="m368.236 267.407c1.698 0 3.074-1.376 3.074-3.075 0-1.698-1.376-3.074-3.074-3.074s-3.074 1.376-3.074 3.074c0 1.699 1.376 3.075 3.074 3.075z"/><path d="m368.181 346.622c1.698 0 3.074-1.376 3.074-3.075 0-1.697-1.376-3.074-3.074-3.074s-3.074 1.376-3.074 3.074c0 1.699 1.377 3.075 3.074 3.075z"/><path d="m319.026 356.224c1.698 0 3.074-1.376 3.074-3.075 0-1.698-1.376-3.074-3.074-3.074s-3.074 1.376-3.074 3.074c0 1.699 1.377 3.075 3.074 3.075z"/><path d="m269.108 366.426c1.698 0 3.074-1.376 3.074-3.075 0-1.697-1.376-3.074-3.074-3.074s-3.074 1.376-3.074 3.074c-.001 1.699 1.376 3.075 3.074 3.075z"/><path d="m219.953 376.028c1.698 0 3.074-1.376 3.074-3.075 0-1.697-1.376-3.074-3.074-3.074s-3.074 1.376-3.074 3.074c-.001 1.699 1.376 3.075 3.074 3.075z"/></g></g><path d="m475.497 367.408c-1.977-8.926-10.815-14.558-19.741-12.581l-28.812 6.382c.698-1.902.888-4.015.418-6.137l-33.662-151.959c-.634-2.864-2.346-5.309-4.819-6.885s-5.412-2.096-8.276-1.461l-9.84 2.18c.288-1.403.289-2.861-.03-4.301l-36.294-163.834c-1.231-5.555-6.751-9.076-12.306-7.843 0 0 0 0-.001 0l-150.455 33.329c-5.555 1.232-9.073 6.753-7.842 12.307l36.293 163.834c.324 1.463.949 2.781 1.79 3.912l-19.169 4.247c-2.682.594-4.909 2.133-6.429 4.183l-50.909-229.805c-1.977-8.925-10.815-14.557-19.741-12.581l-56.589 12.537c-8.925 1.976-14.558 10.816-12.581 19.74 1.977 8.926 10.815 14.558 19.741 12.581l40.429-8.956 87.639 395.616c.954 4.308 3.516 7.83 6.907 10.112-.718 6.737-.361 13.618 1.148 20.427 3.651 16.48 13.501 30.553 27.736 39.624 10.274 6.548 21.943 9.925 33.839 9.925 4.586 0 9.206-.502 13.792-1.518 16.48-3.65 30.553-13.5 39.625-27.735s12.057-31.15 8.406-47.631c-1.118-5.048-2.827-9.814-5.017-14.258l152.171-33.71c8.924-1.977 14.556-10.815 12.579-19.741zm-173.813-146.916 18.769 84.727-36.533 8.094-18.768-84.728zm-39.881-177.915 20.08 90.645-26.311 5.828-20.08-90.645zm-90.109 22.287c-.271-1.223.504-2.438 1.727-2.709l54.215-12.01 20.951 94.574c.416 1.876 2.079 3.154 3.924 3.154.288 0 .581-.032.874-.096l34.167-7.569c1.042-.231 1.949-.867 2.523-1.766.574-.9.766-1.99.535-3.033l-20.951-94.573 54.216-12.01c1.222-.27 2.438.504 2.709 1.727l36.293 163.834c.131.592.024 1.199-.302 1.711s-.832.866-1.425.997l-150.454 33.33c-1.222.27-2.439-.504-2.71-1.727zm12.797 181.59 72.804-16.128 19.639 88.656c.231 1.042.866 1.949 1.766 2.523.651.415 1.402.631 2.163.631.29 0 .583-.031.87-.095l44.39-9.834c2.169-.48 3.539-2.629 3.058-4.799l-19.64-88.655 72.804-16.128c.213-.047.427-.071.64-.071.552 0 1.093.157 1.57.461.661.421 1.118 1.075 1.287 1.84l33.663 151.96c.35 1.579-.65 3.148-2.229 3.498l-137.99 30.569c-11.834-5.173-25.342-6.797-38.89-3.796-9.305 2.061-17.842 6.101-25.145 11.789l-32.99-148.922c-.349-1.58.651-3.15 2.23-3.499zm116.079 231.968c-7.917 12.423-20.197 21.018-34.579 24.204-14.381 3.187-29.143.581-41.565-7.336s-21.018-20.197-24.204-34.578c-3.186-14.382-.581-29.143 7.336-41.566 7.917-12.422 20.197-21.018 34.579-24.204 4.001-.886 7.996-1.311 11.934-1.311 25.287 0 48.144 17.54 53.835 43.227 3.186 14.38.581 29.142-7.336 41.564z" fill="#31373d"/></g></svg>